<svg width="66" height="36" viewBox="0 0 66 36" fill="none" xmlns="http://www.w3.org/2000/svg">
<path d="M6.40886 10.5596H10.8961L17.2334 25.8304H12.4906L8.48382 15.6907L5.83646 22.3449H8.98467L10.2419 25.8304H0L6.40886 10.5596ZM22.5179 13.7282C22.9779 13.7282 23.4787 13.7691 23.9796 13.8918V10.1098H27.9455V25.1558C27.0358 25.5647 25.0733 26.0655 23.1107 26.0655C19.5537 26.0655 16.4974 24.0417 16.4974 20.0042C16.4974 15.9667 19.4412 13.7385 22.5179 13.7385V13.7282ZM23.0187 22.7947C23.3867 22.7947 23.6831 22.7231 23.9796 22.6311V17.0911C23.6831 16.9787 23.3867 16.9275 22.9983 16.9275C21.7002 16.9275 20.494 17.8884 20.494 19.9122C20.494 21.9361 21.7206 22.7844 23.0187 22.7844V22.7947ZM35.0085 13.7282C38.3101 13.7282 41.121 15.9565 41.121 19.8816C41.121 23.8066 38.3203 26.0349 35.0085 26.0349C31.6968 26.0349 28.8756 23.8066 28.8756 19.8816C28.8756 15.9565 31.6559 13.7282 35.0085 13.7282ZM35.0085 22.7333C36.1431 22.7333 37.1959 21.8236 37.1959 19.8816C37.1959 17.9395 36.1431 17.0298 35.0085 17.0298C33.8739 17.0298 32.8416 17.9395 32.8416 19.8816C32.8416 21.8236 33.8228 22.7333 35.0085 22.7333ZM42.0715 10.1098H46.0579V13.8918C46.5383 13.7998 47.0392 13.7282 47.54 13.7282C50.6371 13.7282 53.5094 15.7521 53.5094 19.718C53.5094 23.9088 50.4531 26.0349 46.8348 26.0349C45.2811 26.0349 43.2981 25.718 42.0715 25.1456V10.0996V10.1098ZM46.9267 22.7742C48.2964 22.7742 49.5434 21.793 49.5434 19.7691C49.5434 17.8781 48.3169 16.9889 46.9881 16.9889C46.6201 16.9889 46.3237 17.0298 46.0579 17.1524V22.6209C46.2828 22.7129 46.5792 22.7844 46.9267 22.7844V22.7742ZM60.276 13.7282C63.2606 13.7282 66 15.6396 66 19.4931C66 20.0144 65.9796 20.5153 65.908 21.0161H58.477C58.8859 22.3654 60.0715 22.9991 61.5537 22.9991C62.7598 22.9991 63.8739 22.7027 65.1312 22.1609V25.1967C63.9659 25.7896 62.5758 26.0349 61.1448 26.0349C57.3629 26.0349 54.4191 23.7555 54.4191 19.8816C54.4191 16.0076 57.0869 13.7282 60.276 13.7282ZM62.2794 18.5323C62.075 17.2342 61.2061 16.7129 60.3169 16.7129C59.4276 16.7129 58.7019 17.2649 58.4054 18.5323H62.2794Z" fill="#EB1000"/>
</svg>
