<svg width="202" height="46" viewBox="0 0 202 46" fill="none" xmlns="http://www.w3.org/2000/svg">
<path d="M159.23 24.2584V5.90577H165.039L171.496 14.59V7.99894L176.98 5.89331V24.2335H171.659L164.889 14.9014V24.2335H159.23V24.2584Z" fill="#8458B3"/>
<path d="M115.415 24.2584V5.90577H121.223L127.68 14.59V7.99894L133.164 5.89331V24.2335H127.843L121.073 14.9014V24.2335H115.415V24.2584Z" fill="#8458B3"/>
<path fill-rule="evenodd" clip-rule="evenodd" d="M88.3843 8.03618V24.2583H93.8677V5.91809L88.3843 8.03618Z" fill="#8458B3"/>
<path fill-rule="evenodd" clip-rule="evenodd" d="M135.374 8.03618V24.2583H140.857V5.91809L135.374 8.03618Z" fill="#8458B3"/>
<path d="M32.9746 24.2584V5.89331H41.1935C46.9892 5.89331 51.2984 9.19504 51.2984 15.0634C51.2984 20.9318 46.9892 24.2584 41.2309 24.2584H32.9746ZM38.5455 19.4117H41.1935C43.9789 19.4117 45.6402 17.3809 45.6402 15.0634C45.6402 12.584 44.2037 10.74 41.2309 10.74H38.5579V19.4117H38.5455Z" fill="#8458B3"/>
<path d="M53.5103 24.2584V5.89331H67.4748V10.5157H59.0811V12.6587H67.275V17.2812H59.0811V19.6235H67.4748V24.246H53.5103V24.2584Z" fill="#8458B3"/>
<path d="M72.571 17.2062C73.9449 18.5269 76.0184 19.5735 78.504 19.5735C79.5533 19.5735 80.54 19.2122 80.54 18.502C80.54 17.7918 79.7656 17.4305 77.942 17.0941C74.9067 16.5459 70.2727 15.8232 70.2727 11.2257C70.2727 8.11087 72.8707 5.28259 77.917 5.28259C80.9272 5.28259 83.6252 6.12983 85.7237 7.83676L82.7384 11.7739C81.1396 10.5654 79.0661 9.95486 77.6047 9.95486C76.2307 9.95486 75.9185 10.4532 75.9185 10.9142C75.9185 11.6244 76.6679 11.8736 78.629 12.21C81.6642 12.7333 86.1608 13.6179 86.1608 17.8541C86.1608 21.9034 83.1506 24.2333 78.2168 24.2333C74.2947 24.2333 71.6217 23.0746 69.6606 21.3178L72.571 17.2062Z" fill="#8458B3"/>
<path d="M104.797 5.25769C109.069 5.25769 111.617 7.4007 112.878 9.76798L108.182 12.1602C107.57 11.0264 106.358 10.1542 104.784 10.1542C102.111 10.1542 100.313 12.1851 100.313 14.7517C100.313 17.3184 102.111 19.3492 104.784 19.3492C105.971 19.3492 107.07 19.0502 107.794 18.5269V17.7295H104.235V13.1569H113.203V20.5329C111.154 22.788 108.407 24.2458 104.784 24.2458C99.2134 24.2458 94.6543 20.6076 94.6543 14.7517C94.6668 8.87091 99.2259 5.25769 104.797 5.25769Z" fill="#8458B3"/>
<path d="M143.068 24.2584V5.89331H157.033V10.5157H148.639V12.6587H156.833V17.2812H148.639V19.6235H157.033V24.246H143.068V24.2584Z" fill="#8458B3"/>
<path d="M184.125 24.2584V10.74H179.179V5.89331H194.605V10.74H189.696V24.2584H184.125Z" fill="#8458B3"/>
<path d="M196.104 5.59422C196.104 3.96204 197.429 2.65381 199.052 2.65381C200.701 2.65381 202 3.96204 202 5.59422C202 7.21394 200.689 8.53463 199.052 8.53463C197.429 8.54709 196.104 7.2264 196.104 5.59422ZM196.467 5.59422C196.467 7.01459 197.616 8.17331 199.052 8.17331C200.489 8.17331 201.638 7.00213 201.638 5.59422C201.638 4.14893 200.476 3.01513 199.052 3.01513C197.628 3.01513 196.467 4.16139 196.467 5.59422ZM199.877 7.2887L199.002 5.95554H198.353V7.2887H197.953V3.92467H199.327C199.927 3.92467 200.351 4.32336 200.351 4.94633C200.351 5.6939 199.677 5.94308 199.489 5.94308L200.389 7.2887H199.877ZM198.353 4.29845V5.58176H199.327C199.727 5.58176 199.939 5.30765 199.939 4.95879C199.939 4.58501 199.727 4.31091 199.327 4.31091H198.353V4.29845Z" fill="#8458B3"/>
<path d="M33.4127 34.7615C33.9123 35.3471 34.7367 35.8953 35.8609 35.8953C37.4722 35.8953 37.9343 35.0107 37.9343 34.3379C37.9343 33.2414 36.8851 32.93 35.7859 32.6434C34.5493 32.307 33.2378 31.9581 33.2378 30.5128C33.2378 29.242 34.387 28.4321 35.8109 28.4321C36.985 28.4321 37.8594 28.8433 38.4714 29.5286L38.0217 30.0145C37.4597 29.3417 36.6603 29.0302 35.7734 29.0302C34.7242 29.0302 33.9373 29.6282 33.9373 30.463C33.9373 31.385 34.9116 31.6591 35.9858 31.9332C37.2598 32.2945 38.6463 32.6932 38.6463 34.2756C38.6463 35.2848 37.9718 36.4933 35.8609 36.4933C34.5743 36.4933 33.5876 35.9825 33.0005 35.2474L33.4127 34.7615Z" fill="#858487"/>
<path d="M44.9914 30.5752C45.9782 30.5752 46.5402 30.9614 47.0024 31.5346L46.5777 31.9083C46.1655 31.3477 45.6534 31.1234 45.0289 31.1234C43.7049 31.1234 42.893 32.17 42.893 33.5281C42.893 34.8861 43.7049 35.9452 45.0289 35.9452C45.6534 35.9452 46.1655 35.7085 46.5777 35.1478L47.0024 35.5216C46.5402 36.1072 45.9782 36.4934 44.9914 36.4934C43.3176 36.4934 42.231 35.1727 42.231 33.5281C42.231 31.8834 43.3301 30.5752 44.9914 30.5752Z" fill="#858487"/>
<path d="M54.547 36.369V32.5191C54.547 31.4351 53.9974 31.1236 53.1731 31.1236C52.4486 31.1236 51.6867 31.5846 51.3244 32.0955V36.369H50.7124V28.5695H51.3244V31.5722C51.7366 31.0862 52.5485 30.5754 53.3729 30.5754C54.5221 30.5754 55.1591 31.1112 55.1591 32.3945V36.369H54.547Z" fill="#858487"/>
<path d="M59.0806 33.5405C59.0806 31.8959 60.1548 30.5752 61.8035 30.5752C63.4773 30.5752 64.539 31.8834 64.539 33.5405C64.539 35.1852 63.4773 36.5059 61.8035 36.5059C60.1548 36.5059 59.0806 35.1852 59.0806 33.5405ZM63.8895 33.5405C63.8895 32.2821 63.1525 31.1359 61.816 31.1359C60.5045 31.1359 59.7426 32.2946 59.7426 33.5405C59.7426 34.7989 60.492 35.9576 61.816 35.9576C63.1525 35.9576 63.8895 34.7989 63.8895 33.5405Z" fill="#858487"/>
<path d="M68.1367 33.5405C68.1367 31.8959 69.2109 30.5752 70.8597 30.5752C72.5334 30.5752 73.5951 31.8834 73.5951 33.5405C73.5951 35.1852 72.5334 36.5059 70.8597 36.5059C69.2109 36.5059 68.1367 35.1852 68.1367 33.5405ZM72.9456 33.5405C72.9456 32.2821 72.2087 31.1359 70.8722 31.1359C69.5607 31.1359 68.7987 32.2946 68.7987 33.5405C68.7987 34.7989 69.5482 35.9576 70.8722 35.9576C72.2087 35.9576 72.9456 34.7989 72.9456 33.5405Z" fill="#858487"/>
<path d="M77.5298 36.369V28.5695H78.1418V36.369H77.5298Z" fill="#858487"/>
<path d="M87.4595 33.5405C87.4595 31.8959 88.5337 30.5752 90.1824 30.5752C91.8562 30.5752 92.9179 31.8834 92.9179 33.5405C92.9179 35.1852 91.8562 36.5059 90.1824 36.5059C88.5212 36.5059 87.4595 35.1852 87.4595 33.5405ZM92.2559 33.5405C92.2559 32.2821 91.5189 31.1359 90.1824 31.1359C88.8709 31.1359 88.109 32.2946 88.109 33.5405C88.109 34.7989 88.8584 35.9576 90.1824 35.9576C91.5189 35.9576 92.2559 34.7989 92.2559 33.5405Z" fill="#858487"/>
<path d="M97.6519 31.2606V36.369H97.0398V31.2606H96.103V30.7249H97.0398V30.214C97.0398 29.1052 97.6394 28.4573 98.5762 28.4573C98.8635 28.4573 99.1133 28.5071 99.3381 28.6317L99.1508 29.1052C99.0134 29.0304 98.851 28.9806 98.6386 28.9806C97.9891 28.9806 97.6519 29.4291 97.6519 30.214V30.7249H98.801V31.2606H97.6519Z" fill="#858487"/>
<path d="M114.377 36.369V29.4416L111.517 36.369H111.255L108.394 29.4416V36.369H107.72V28.5695H108.719L111.38 35.0359L114.04 28.5695H115.052V36.369H114.377Z" fill="#858487"/>
<path d="M122.946 36.3688V35.7084C122.446 36.2567 121.809 36.5183 121.022 36.5183C120.048 36.5183 119.036 35.8455 119.036 34.6369C119.036 33.4035 120.035 32.768 121.022 32.768C121.809 32.768 122.459 33.0297 122.946 33.5779V32.4316C122.946 31.5844 122.259 31.1358 121.422 31.1358C120.722 31.1358 120.16 31.385 119.648 31.9706L119.311 31.547C119.898 30.9116 120.56 30.6001 121.497 30.6001C122.646 30.6001 123.57 31.1483 123.57 32.4192V36.3937H122.946V36.3688ZM122.946 34.014C122.546 33.5031 121.909 33.229 121.235 33.229C120.298 33.229 119.686 33.8271 119.686 34.6369C119.686 35.4343 120.298 36.0324 121.235 36.0324C121.921 36.0324 122.546 35.7707 122.946 35.2599V34.014Z" fill="#858487"/>
<path d="M127.68 35.1602C128.043 35.6212 128.717 35.995 129.516 35.995C130.466 35.995 131.028 35.534 131.028 34.8737C131.028 34.151 130.253 33.9392 129.441 33.7274C128.492 33.4907 127.443 33.254 127.443 32.1451C127.443 31.2729 128.18 30.5752 129.466 30.5752C130.441 30.5752 131.09 30.949 131.502 31.41L131.165 31.8461C130.84 31.3975 130.228 31.0985 129.479 31.0985C128.592 31.0985 128.055 31.5346 128.055 32.1202C128.055 32.768 128.779 32.9425 129.566 33.1418C130.541 33.391 131.64 33.6527 131.64 34.8612C131.64 35.7708 130.94 36.5183 129.516 36.5183C128.605 36.5183 127.893 36.2442 127.331 35.6337L127.68 35.1602Z" fill="#858487"/>
<path d="M135.662 35.285V31.2606H134.725V30.7249H135.662V29.1799H136.286V30.7249H137.436V31.2606H136.286V35.1853C136.286 35.6463 136.474 35.9578 136.873 35.9578C137.148 35.9578 137.373 35.8332 137.511 35.6837L137.748 36.1572C137.523 36.369 137.261 36.506 136.786 36.506C136.024 36.506 135.662 36.0575 135.662 35.285Z" fill="#858487"/>
<path d="M143.543 30.5752C145.267 30.5752 146.216 31.9457 146.216 33.5654V33.7274H141.47C141.532 34.9609 142.357 35.9701 143.693 35.9701C144.405 35.9701 145.067 35.696 145.554 35.1852L145.867 35.5839C145.305 36.1695 144.58 36.4934 143.643 36.4934C141.982 36.4934 140.795 35.2599 140.795 33.5281C140.795 31.8959 141.957 30.5752 143.543 30.5752ZM141.47 33.254H145.592C145.579 32.2946 144.942 31.0985 143.518 31.0985C142.182 31.0985 141.52 32.2697 141.47 33.254Z" fill="#858487"/>
<path d="M150.138 36.3688V30.7247H150.75V31.6965C151.237 31.0611 151.874 30.6125 152.661 30.6125V31.2854C152.561 31.2604 152.474 31.2604 152.362 31.2604C151.787 31.2604 151.013 31.7713 150.75 32.2696V36.3812H150.138V36.3688Z" fill="#858487"/>
<path d="M162.965 36.3688V32.4192C162.965 31.6218 162.628 31.1358 161.829 31.1358C161.217 31.1358 160.53 31.5844 160.205 32.0952V36.3812H159.58V32.4316C159.58 31.6342 159.256 31.1483 158.444 31.1483C157.844 31.1483 157.157 31.6093 156.82 32.1201V36.3937H156.208V30.7496H156.82V31.6093C157.057 31.248 157.832 30.6125 158.656 30.6125C159.543 30.6125 160.005 31.1234 160.143 31.6716C160.455 31.1483 161.217 30.6125 162.016 30.6125C163.065 30.6125 163.565 31.1981 163.565 32.3319V36.4062H162.965V36.3688Z" fill="#858487"/>
<path d="M167.675 29.2919C167.675 29.0303 167.9 28.8185 168.149 28.8185C168.412 28.8185 168.624 29.0303 168.624 29.2919C168.624 29.5536 168.412 29.7654 168.149 29.7654C167.9 29.7654 167.675 29.5536 167.675 29.2919ZM167.837 36.3689V30.7248H168.449V36.3689H167.837Z" fill="#858487"/>
<path d="M176.531 36.3688V32.5438C176.531 31.4598 175.981 31.1234 175.157 31.1234C174.432 31.1234 173.683 31.5844 173.308 32.0952V36.3688H172.696V30.7247H173.308V31.5844C173.721 31.0985 174.532 30.5876 175.357 30.5876C176.506 30.5876 177.143 31.1483 177.143 32.4192V36.3688H176.531Z" fill="#858487"/>
<path d="M185.574 36.3689V35.4718C185.174 36.0574 184.45 36.5184 183.601 36.5184C182.102 36.5184 181.065 35.3721 181.065 33.5531C181.065 31.7589 182.102 30.5877 183.601 30.5877C184.412 30.5877 185.112 30.9989 185.574 31.6468V28.5818H186.199V36.3814H185.574V36.3689ZM185.574 32.1576C185.249 31.6094 184.5 31.1235 183.7 31.1235C182.439 31.1235 181.714 32.1701 181.714 33.5406C181.714 34.9111 182.439 35.9453 183.7 35.9453C184.5 35.9453 185.237 35.4718 185.574 34.9361V32.1576Z" fill="#858487"/>
<path d="M190.32 35.1602C190.683 35.6212 191.357 35.995 192.157 35.995C193.106 35.995 193.668 35.534 193.668 34.8737C193.668 34.151 192.894 33.9392 192.082 33.7274C191.132 33.4907 190.083 33.254 190.083 32.1451C190.083 31.2729 190.82 30.5752 192.107 30.5752C193.081 30.5752 193.73 30.949 194.143 31.41L193.805 31.8461C193.481 31.3975 192.869 31.0985 192.119 31.0985C191.232 31.0985 190.695 31.5346 190.695 32.1202C190.695 32.768 191.42 32.9425 192.207 33.1418C193.181 33.391 194.28 33.6527 194.28 34.8612C194.28 35.7708 193.581 36.5183 192.157 36.5183C191.245 36.5183 190.533 36.2442 189.971 35.6337L190.32 35.1602Z" fill="#858487"/>
<path d="M27.6668 37.9637C27.1547 37.9637 26.73 37.5401 26.73 37.0293C26.73 30.9615 26.73 25.1181 26.7175 19.2746C26.7175 13.9296 26.7175 8.57205 26.705 3.04009C25.6683 3.5883 24.6066 4.16143 23.5698 4.73456C22.2333 5.46966 20.8594 6.21723 19.5353 6.89003C19.5353 8.62188 19.5353 10.3537 19.5353 12.0607C19.5353 13.9296 19.5353 15.7736 19.5353 17.5926V19.1376L13.4399 15.9355L1.41136 22.4642C0.961692 22.7134 0.38712 22.539 0.137307 22.0905C-0.112507 21.6419 0.0623626 21.0688 0.512027 20.8196L13.4149 13.8174L17.6492 16.0477C17.6492 14.7394 17.6492 13.4063 17.6492 12.0607C17.6492 10.1544 17.6492 8.23564 17.6492 6.3169V5.74377L18.1614 5.48212C19.6103 4.75948 21.1591 3.91224 22.658 3.08992C24.1694 2.2676 25.7307 1.40791 27.2171 0.672806L28.5786 0V1.50758C28.5786 7.5753 28.5786 13.4187 28.5911 19.2622C28.5911 25.1056 28.6036 30.9491 28.6036 37.0293C28.6036 37.5401 28.1789 37.9637 27.6668 37.9637Z" fill="#8458B3"/>
<path d="M19.2234 33.8273C18.7113 33.8273 18.2866 33.4037 18.2866 32.8928V27.6973L14.2396 25.3674L9.73046 27.9589C9.28079 28.2206 8.70622 28.0586 8.45641 27.6225C8.1941 27.174 8.35648 26.6009 8.79366 26.3517L14.2396 23.2119L20.1602 26.6133V32.8928C20.1602 33.4037 19.7355 33.8273 19.2234 33.8273Z" fill="#8458B3"/>
<path d="M14.2526 36.78L8.33203 33.4285V27.1489C8.33203 26.6381 8.75671 26.2145 9.26883 26.2145C9.78095 26.2145 10.2056 26.6381 10.2056 27.1489V32.3445L14.2526 34.637L18.7618 32.0828C19.2114 31.8337 19.786 31.9832 20.0358 32.4317C20.2856 32.8802 20.1357 33.4534 19.6861 33.7026L14.2526 36.78Z" fill="#858487"/>
<path d="M14.102 45.9999L0 37.6895L0.0374724 21.6419C0.0374724 21.131 0.462156 20.7074 0.974274 20.7074C1.48639 20.7074 1.91107 21.131 1.91107 21.6419L1.8736 36.618L14.1145 43.832L27.1922 36.2193C27.6419 35.9577 28.2165 36.1072 28.4788 36.5557C28.7411 37.0043 28.5912 37.5774 28.1415 37.839L14.102 45.9999Z" fill="#858487"/>
</svg>
